<svg width="33" height="34" viewBox="0 0 33 34" fill="none" xmlns="http://www.w3.org/2000/svg">
<g clip-path="url(#clip0)">
<path d="M28.9434 2.59261H27.4066V0H24.8453V2.59261H7.94087V0H5.37959V2.59261H3.84282C1.72439 2.59261 0.000900269 4.33718 0.000900269 6.48153V29.2965C0.000900269 31.4408 1.72439 33.1854 3.84282 33.1854H28.9434C31.0618 33.1854 32.7853 31.4408 32.7853 29.2965V6.48153C32.7853 4.33718 31.0618 2.59261 28.9434 2.59261ZM30.224 29.2965C30.224 30.0113 29.6495 30.5928 28.9434 30.5928H3.84282C3.13667 30.5928 2.56218 30.0113 2.56218 29.2965V12.1853H30.224V29.2965ZM30.224 9.59266H2.56218V6.48153C2.56218 5.76674 3.13667 5.18522 3.84282 5.18522H5.37959V7.77783H7.94087V5.18522H24.8453V7.77783H27.4066V5.18522H28.9434C29.6495 5.18522 30.224 5.76674 30.224 6.48153V9.59266Z" fill="#394A58"/>
<path d="M7.42784 14.9077H4.86656V17.5003H7.42784V14.9077Z" fill="#394A58"/>
<path d="M12.5502 14.9077H9.98891V17.5003H12.5502V14.9077Z" fill="#394A58"/>
<path d="M17.6725 14.9077H15.1112V17.5003H17.6725V14.9077Z" fill="#394A58"/>
<path d="M22.7957 14.9077H20.2345V17.5003H22.7957V14.9077Z" fill="#394A58"/>
<path d="M27.9181 14.9077H25.3568V17.5003H27.9181V14.9077Z" fill="#394A58"/>
<path d="M7.42784 20.0928H4.86656V22.6854H7.42784V20.0928Z" fill="#394A58"/>
<path d="M12.5502 20.0928H9.98891V22.6854H12.5502V20.0928Z" fill="#394A58"/>
<path d="M17.6725 20.0928H15.1112V22.6854H17.6725V20.0928Z" fill="#394A58"/>
<path d="M22.7957 20.0928H20.2345V22.6854H22.7957V20.0928Z" fill="#394A58"/>
<path d="M7.42784 25.2778H4.86656V27.8704H7.42784V25.2778Z" fill="#394A58"/>
<path d="M12.5502 25.2778H9.98891V27.8704H12.5502V25.2778Z" fill="#394A58"/>
<path d="M17.6725 25.2778H15.1112V27.8704H17.6725V25.2778Z" fill="#394A58"/>
<path d="M22.7957 25.2778H20.2345V27.8704H22.7957V25.2778Z" fill="#394A58"/>
<path d="M27.9181 20.0928H25.3568V22.6854H27.9181V20.0928Z" fill="#394A58"/>
</g>
<defs>
<clipPath id="clip0">
<rect width="32.7844" height="33.1854" fill="white" transform="translate(0.000442505)"/>
</clipPath>
</defs>
</svg>
