<svg width="24" height="24" viewBox="0 0 24 24" fill="none" xmlns="http://www.w3.org/2000/svg">
<g clip-path="url(#clip0)">
<path d="M20.6207 2.22851H19.5379V0.423828H17.7332V2.22851H5.8223V0.423828H4.01762V2.22851H2.93481C1.44215 2.22851 0.227783 3.44288 0.227783 4.93554V20.8167C0.227783 22.3094 1.44215 23.5238 2.93481 23.5238H20.6207C22.1134 23.5238 23.3277 22.3094 23.3277 20.8167V4.93554C23.3277 3.44288 22.1134 2.22851 20.6207 2.22851ZM21.523 20.8167C21.523 21.3143 21.1183 21.7191 20.6207 21.7191H2.93481C2.43726 21.7191 2.03247 21.3143 2.03247 20.8167V8.90584H21.523V20.8167ZM21.523 7.10116H2.03247V4.93554C2.03247 4.43798 2.43726 4.03319 2.93481 4.03319H4.01762V5.83788H5.8223V4.03319H17.7332V5.83788H19.5379V4.03319H20.6207C21.1183 4.03319 21.523 4.43798 21.523 4.93554V7.10116Z" fill="white"/>
<path d="M5.46325 10.8008H3.65857V12.6055H5.46325V10.8008Z" fill="white"/>
<path d="M9.07128 10.8008H7.2666V12.6055H9.07128V10.8008Z" fill="white"/>
<path d="M12.6811 10.8008H10.8765V12.6055H12.6811V10.8008Z" fill="white"/>
<path d="M16.2911 10.8008H14.4865V12.6055H16.2911V10.8008Z" fill="white"/>
<path d="M19.899 10.8008H18.0944V12.6055H19.899V10.8008Z" fill="white"/>
<path d="M5.46325 14.4102H3.65857V16.2148H5.46325V14.4102Z" fill="white"/>
<path d="M9.07128 14.4102H7.2666V16.2148H9.07128V14.4102Z" fill="white"/>
<path d="M12.6811 14.4102H10.8765V16.2148H12.6811V14.4102Z" fill="white"/>
<path d="M16.2911 14.4102H14.4865V16.2148H16.2911V14.4102Z" fill="white"/>
<path d="M5.46325 18.0195H3.65857V19.8242H5.46325V18.0195Z" fill="white"/>
<path d="M9.07128 18.0195H7.2666V19.8242H9.07128V18.0195Z" fill="white"/>
<path d="M12.6811 18.0195H10.8765V19.8242H12.6811V18.0195Z" fill="white"/>
<path d="M16.2911 18.0195H14.4865V19.8242H16.2911V18.0195Z" fill="white"/>
<path d="M19.899 14.4102H18.0944V16.2148H19.899V14.4102Z" fill="white"/>
</g>
<defs>
<clipPath id="clip0">
<rect width="23.0999" height="23.0999" fill="white" transform="translate(0.226562 0.423828)"/>
</clipPath>
</defs>
</svg>
