<svg width="24" height="24" viewBox="0 0 24 24" fill="none" xmlns="http://www.w3.org/2000/svg">
<g clip-path="url(#clip0)">
<path d="M15.8911 13.8885L12.6703 11.4729V6.55239C12.6703 6.05763 12.2704 5.65771 11.7757 5.65771C11.2809 5.65771 10.881 6.05763 10.881 6.55239V11.9203C10.881 12.2021 11.0134 12.4679 11.2388 12.6361L14.8174 15.32C14.9785 15.4408 15.1664 15.499 15.3533 15.499C15.6262 15.499 15.8946 15.3764 16.07 15.1402C16.3671 14.7456 16.2866 14.1847 15.8911 13.8885Z" fill="white"/>
<path d="M11.777 0.298828C5.40798 0.298828 0.227051 5.47976 0.227051 11.8488C0.227051 18.2178 5.40798 23.3988 11.777 23.3988C18.1461 23.3988 23.327 18.2178 23.327 11.8488C23.327 5.47976 18.1461 0.298828 11.777 0.298828ZM11.777 21.6095C6.39568 21.6095 2.01635 17.2301 2.01635 11.8488C2.01635 6.46746 6.39568 2.08813 11.777 2.08813C17.1593 2.08813 21.5377 6.46746 21.5377 11.8488C21.5377 17.2301 17.1584 21.6095 11.777 21.6095Z" fill="white"/>
</g>
<defs>
<clipPath id="clip0">
<rect width="23.0999" height="23.0999" fill="white" transform="translate(0.227051 0.298828)"/>
</clipPath>
</defs>
</svg>
