<svg width="24" height="24" viewBox="0 0 24 24" fill="none" xmlns="http://www.w3.org/2000/svg">
<g clip-path="url(#clip0)">
<path d="M22.1511 15.0764C21.8209 15.0764 21.5533 15.3439 21.5533 15.6741V20.9812C21.5522 21.9712 20.7501 22.7735 19.7602 22.7744H2.98862C1.99864 22.7735 1.19662 21.9712 1.19545 20.9812V5.40513C1.19662 4.41538 1.99864 3.61312 2.98862 3.61195H8.29576C8.62591 3.61195 8.89348 3.34438 8.89348 3.01423C8.89348 2.68431 8.62591 2.4165 8.29576 2.4165H2.98862C1.33881 2.41837 0.00186789 3.75531 0 5.40513V20.9814C0.00186789 22.6313 1.33881 23.9682 2.98862 23.9701H19.7602C21.41 23.9682 22.7469 22.6313 22.7488 20.9814V15.6741C22.7488 15.3439 22.4812 15.0764 22.1511 15.0764Z" fill="#394A58" fill-opacity="0.67"/>
<path d="M22.5111 0.878661C21.4606 -0.171793 19.7576 -0.171793 18.7071 0.878661L8.04335 11.5424C7.97027 11.6155 7.9175 11.7061 7.88995 11.8056L6.48763 16.8683C6.42996 17.0758 6.48857 17.2981 6.6408 17.4506C6.79327 17.6028 7.01554 17.6614 7.22311 17.604L12.2858 16.2014C12.3853 16.1739 12.4758 16.1211 12.5489 16.048L23.2125 5.38401C24.2613 4.33285 24.2613 2.63121 23.2125 1.58005L22.5111 0.878661ZM9.34574 11.931L18.0732 3.20325L20.8879 6.01792L12.1602 14.7456L9.34574 11.931ZM8.7835 13.0592L11.0322 15.3081L7.9217 16.1699L8.7835 13.0592ZM22.3673 4.53879L21.7333 5.1727L18.9184 2.3578L19.5526 1.72388C20.1361 1.1404 21.0821 1.1404 21.6656 1.72388L22.3673 2.42527C22.9498 3.00945 22.9498 3.95484 22.3673 4.53879Z" fill="#394A58" fill-opacity="0.67"/>
</g>
<defs>
<clipPath id="clip0">
<rect width="24" height="24" fill="white"/>
</clipPath>
</defs>
</svg>
