<svg width="36" height="36" viewBox="0 0 36 36" fill="none" xmlns="http://www.w3.org/2000/svg">
<path d="M18.1969 35.6627C8.46562 35.7049 0.464053 27.6049 0.696085 17.7119C0.914053 8.29002 8.71874 0.50643 18.4219 0.611899C28.0336 0.717368 35.9859 8.71893 35.7258 18.626C35.4797 28.0057 27.7383 35.7119 18.1969 35.6627ZM2.82655 18.1619C2.9039 26.9721 10.0476 33.7572 18.4851 33.6096C26.6555 33.4619 33.5812 26.8033 33.5812 18.1408C33.5812 9.33065 26.3812 2.51737 17.9156 2.67909C9.7453 2.82674 2.8828 9.50643 2.82655 18.1619Z" fill="#394A58"/>
<path d="M14.5404 30.4739C14.5404 26.3325 14.5404 22.2263 14.5404 18.0778C13.6263 18.0778 12.7404 18.0778 11.8334 18.0778C11.8334 16.6716 11.8334 15.3075 11.8334 13.9013C11.9529 13.8942 12.0724 13.8802 12.199 13.8802C12.8529 13.8802 13.5138 13.8661 14.1678 13.8872C14.456 13.8942 14.5545 13.8169 14.5474 13.5216C14.5334 12.4528 14.5334 11.3911 14.5404 10.3224C14.5474 9.12002 14.8849 8.03018 15.7428 7.1583C16.5724 6.31455 17.6342 5.85752 18.7873 5.78721C20.6435 5.68174 22.5068 5.6958 24.3701 5.66064C24.3912 5.66064 24.4123 5.68174 24.4545 5.70283C24.4545 7.11611 24.4545 8.53643 24.4545 9.99189C24.3209 9.99893 24.1943 10.006 24.0748 10.006C23.231 10.006 22.3873 10.006 21.5435 10.006C20.6928 10.013 20.1935 10.5192 20.1935 11.356C20.1935 12.1505 20.1935 12.9521 20.2006 13.7466C20.2006 13.7677 20.2146 13.7888 20.2357 13.8661C21.6279 13.8661 23.0342 13.8661 24.5107 13.8661C24.3279 15.2935 24.1592 16.6575 23.9764 18.0708C22.7037 18.0708 21.4592 18.0708 20.1795 18.0708C20.1795 22.2333 20.1795 26.3536 20.1795 30.488C18.2881 30.4739 16.4459 30.4739 14.5404 30.4739Z" fill="#394A58"/>
</svg>
