<svg width="27" height="27" viewBox="0 0 27 27" fill="none" xmlns="http://www.w3.org/2000/svg">
<g clip-path="url(#clip0)">
<path d="M13.4546 6.54346C9.64045 6.54346 6.55255 9.63472 6.55255 13.4455C6.55255 17.2597 9.64381 20.3476 13.4546 20.3476C17.2688 20.3476 20.3567 17.2564 20.3567 13.4455C20.3567 9.63135 17.2655 6.54346 13.4546 6.54346ZM13.4546 17.9255C10.9787 17.9255 8.97467 15.9203 8.97467 13.4455C8.97467 10.9707 10.9798 8.96558 13.4546 8.96558C15.9294 8.96558 17.9346 10.9707 17.9346 13.4455C17.9357 15.9203 15.9306 17.9255 13.4546 17.9255Z" fill="#394A58"/>
<path d="M18.9959 0.0849841C16.5211 -0.0304617 10.3913 -0.0248575 7.91421 0.0849841C5.73756 0.18698 3.81757 0.71265 2.2697 2.26052C-0.317185 4.8474 0.0134606 8.3332 0.0134606 13.4453C0.0134606 18.6774 -0.277956 22.0825 2.2697 24.6301C4.86667 27.226 8.4029 26.8863 13.4545 26.8863C18.6372 26.8863 20.4261 26.8897 22.2586 26.1802C24.7502 25.2129 26.631 22.9858 26.8148 18.9856C26.9314 16.5097 26.9247 10.381 26.8148 7.90392C26.5929 3.18185 24.0587 0.318117 18.9959 0.0849841ZM22.9132 22.9186C21.2174 24.6144 18.8648 24.4631 13.422 24.4631C7.81782 24.4631 5.57055 24.546 3.93077 22.9018C2.04217 21.0221 2.38402 18.0037 2.38402 13.4274C2.38402 7.23478 1.74851 2.77498 7.96353 2.45667C9.39147 2.40623 9.81179 2.38942 13.4063 2.38942L13.4567 2.42304C19.4297 2.42304 24.1159 1.79762 24.3972 8.01152C24.4611 9.42937 24.4756 9.85529 24.4756 13.4442C24.4745 18.9834 24.5799 21.2441 22.9132 22.9186Z" fill="#394A58"/>
<path d="M20.6297 7.88395C21.5204 7.88395 22.2425 7.16184 22.2425 6.27108C22.2425 5.38031 21.5204 4.6582 20.6297 4.6582C19.7389 4.6582 19.0168 5.38031 19.0168 6.27108C19.0168 7.16184 19.7389 7.88395 20.6297 7.88395Z" fill="#394A58"/>
</g>
<defs>
<clipPath id="clip0">
<rect width="26.9" height="26.9" fill="white"/>
</clipPath>
</defs>
</svg>
