<svg width="131" height="131" viewBox="0 0 131 131" fill="none" xmlns="http://www.w3.org/2000/svg">
<g clip-path="url(#clip0)">
<path d="M91.5624 27.2924C84.8527 20.4993 75.9031 16.6907 66.3628 16.5666C56.6855 16.4405 47.5364 20.1339 40.5953 26.9647C33.6583 33.7916 29.8219 42.8762 29.7931 52.5455C29.7623 63.0112 34.2689 72.9635 42.1571 79.8509C47.868 84.837 51.1434 91.928 51.1434 99.3029V117.511C51.1434 124.472 56.8066 130.135 63.7675 130.135H68.004C74.9639 130.135 80.6271 124.472 80.6271 117.511V99.5362C80.6271 91.9508 83.84 84.8301 89.4426 79.9989C97.4083 73.1313 101.977 63.1641 101.977 52.6557C101.977 43.0986 98.279 34.0904 91.5624 27.2924ZM65.8535 70.952H64.1676C63.2463 70.952 62.4966 70.2024 62.4966 69.28C62.4966 68.3587 63.2463 67.6091 64.1676 67.6091C65.0969 67.6091 65.8535 68.3656 65.8535 69.2949V70.952ZM65.8852 86.0582C67.2872 86.0582 68.4269 87.198 68.4269 88.5999V97.2417H63.3435V88.5999C63.3435 87.198 64.4833 86.0582 65.8852 86.0582ZM75.5437 102.325V106.063H56.2268V102.325H75.5437ZM56.2268 111.147H75.5437V114.885H56.2268V111.147ZM68.003 125.051H63.7675C60.4692 125.051 57.6615 122.923 56.6398 119.968H75.1307C74.109 122.923 71.3013 125.051 68.003 125.051ZM86.1235 76.1496C79.9708 81.4544 76.2188 89.0427 75.6261 97.2417H73.5103V88.5999C73.5103 86.3303 72.5125 84.291 70.9349 82.893C70.9349 82.8821 70.9369 82.8712 70.9369 82.8593V74.5054C73.007 73.0201 74.3572 70.5936 74.3572 67.8573V63.9206C74.3572 58.5056 69.952 54.0994 64.536 54.0994H59.9549C58.5511 54.0994 57.4132 55.2372 57.4132 56.6411C57.4132 58.0449 58.5511 59.1828 59.9549 59.1828H64.536C67.1491 59.1828 69.2738 61.3084 69.2738 63.9206V64.8559C68.0318 63.4292 66.204 62.5257 64.1676 62.5257C60.4434 62.5257 57.4132 65.5559 57.4132 69.281C57.4132 73.0052 60.4434 76.0354 64.1676 76.0354H65.8535V80.9758C61.6636 80.9927 58.2602 84.4061 58.2602 88.5999V97.2417H56.1563C55.5993 89.151 51.7858 81.509 45.501 76.0215C38.7218 70.1041 34.8497 61.5527 34.8765 52.5614C34.9013 44.2592 38.1986 36.4554 44.1617 30.5876C50.1277 24.7159 57.9822 21.5408 66.2963 21.65C83.1678 21.8684 96.894 35.7783 96.894 52.6557C96.894 61.6847 92.9682 70.2471 86.1235 76.1496Z" fill="#394A58"/>
<path d="M66.3983 28.9298H66.3585C64.9576 28.9159 63.8168 30.0388 63.8 31.4417C63.7841 32.8456 64.9209 33.9973 66.3248 34.0132H66.3635H66.3943C67.7833 34.0132 68.9062 32.8953 68.9221 31.5013C68.939 30.0974 67.8022 28.9467 66.3983 28.9298Z" fill="#394A58"/>
<path d="M77.578 31.9124C76.3509 31.2293 74.803 31.6701 74.1199 32.8973C73.4379 34.1235 73.8777 35.6713 75.1049 36.3544C81.0193 39.6477 84.6928 45.8937 84.6928 52.656C84.6928 54.0599 85.8306 55.1977 87.2345 55.1977C88.6384 55.1977 89.7762 54.0599 89.7762 52.656C89.7762 44.051 85.1019 36.1032 77.578 31.9124Z" fill="#394A58"/>
<path d="M65.8854 11.946C67.2893 11.946 68.4271 10.8082 68.4271 9.40429V2.5417C68.4271 1.13781 67.2893 0 65.8854 0C64.4816 0 63.3438 1.13781 63.3438 2.5417V9.40429C63.3438 10.8082 64.4816 11.946 65.8854 11.946Z" fill="#394A58"/>
<path d="M116 50.1143H109.137C107.734 50.1143 106.596 51.2521 106.596 52.656C106.596 54.0598 107.734 55.1977 109.137 55.1977H116C117.404 55.1977 118.542 54.0598 118.542 52.656C118.542 51.2521 117.404 50.1143 116 50.1143Z" fill="#394A58"/>
<path d="M22.6328 50.1143H15.7702C14.3663 50.1143 13.2285 51.2521 13.2285 52.656C13.2285 54.0598 14.3663 55.1977 15.7702 55.1977H22.6328C24.0367 55.1977 25.1745 54.0598 25.1745 52.656C25.1745 51.2521 24.0367 50.1143 22.6328 50.1143Z" fill="#394A58"/>
<path d="M98.2648 81.4424C97.2719 80.4495 95.6625 80.4495 94.6697 81.4424C93.6778 82.4343 93.6778 84.0437 94.6697 85.0365L99.5227 89.8896C100.019 90.385 100.669 90.6342 101.32 90.6342C101.97 90.6342 102.62 90.385 103.117 89.8896C104.11 88.8967 104.11 87.2873 103.117 86.2945L98.2648 81.4424Z" fill="#394A58"/>
<path d="M33.5036 23.8693C34 24.3657 34.6503 24.6139 35.3006 24.6139C35.951 24.6139 36.6023 24.3657 37.0977 23.8693C38.0905 22.8774 38.0905 21.268 37.0977 20.2752L32.2456 15.4221C31.2528 14.4303 29.6434 14.4303 28.6505 15.4221C27.6577 16.415 27.6587 18.0244 28.6505 19.0172L33.5036 23.8693Z" fill="#394A58"/>
<path d="M99.5235 15.4229L94.6714 20.2749C93.6785 21.2678 93.6785 22.8772 94.6714 23.87C95.1678 24.3665 95.8181 24.6147 96.4685 24.6147C97.1188 24.6147 97.7691 24.3665 98.2655 23.87L103.118 19.017C104.11 18.0241 104.11 16.4147 103.118 15.4219C102.126 14.429 100.516 14.43 99.5235 15.4229Z" fill="#394A58"/>
<path d="M33.5039 81.4424L28.6519 86.2945C27.659 87.2873 27.659 88.8967 28.6519 89.8896C29.1483 90.385 29.7986 90.6342 30.4489 90.6342C31.0992 90.6342 31.7496 90.385 32.246 89.8896L37.0981 85.0365C38.0909 84.0437 38.0909 82.4343 37.0981 81.4424C36.1062 80.4495 34.4968 80.4495 33.5039 81.4424Z" fill="#394A58"/>
</g>
<defs>
<clipPath id="clip0">
<rect width="130.135" height="130.135" fill="white" transform="translate(0.775391)"/>
</clipPath>
</defs>
</svg>
