<svg width="27" height="28" viewBox="0 0 27 28" fill="none" xmlns="http://www.w3.org/2000/svg">
<g clip-path="url(#clip0)">
<path d="M22.3213 14.9507C21.8864 14.4015 22.0108 14.1571 22.3213 13.6662C22.3269 13.6606 25.9169 8.6998 26.2868 7.01743L26.2891 7.01631C26.4729 6.40321 26.2891 5.95264 25.4002 5.95264H22.4592C21.7105 5.95264 21.3652 6.33932 21.1803 6.77197C21.1803 6.77197 19.6829 10.3564 17.5645 12.6799C16.8808 13.3513 16.5647 13.5665 16.1915 13.5665C16.0077 13.5665 15.7218 13.3513 15.7218 12.7382V7.01631C15.7218 6.28104 15.5122 5.95264 14.8924 5.95264H10.2679C9.79823 5.95264 9.51915 6.29561 9.51915 6.61505C9.51915 7.31221 10.5783 7.47249 10.6882 9.43395V13.6897C10.6882 14.6223 10.5189 14.7938 10.1435 14.7938C9.14367 14.7938 6.71706 11.1948 5.27903 7.07571C4.98874 6.27656 4.70517 5.95376 3.95085 5.95376H1.00866C0.169154 5.95376 -9.15527e-05 6.34044 -9.15527e-05 6.77309C-9.15527e-05 7.5375 0.999692 11.3382 4.64913 16.3596C7.08133 19.7871 10.5066 21.6443 13.6225 21.6443C15.4954 21.6443 15.7241 21.2318 15.7241 20.5224C15.7241 17.2473 15.5548 16.9379 16.493 16.9379C16.9279 16.9379 17.6766 17.1531 19.4251 18.8064C21.4235 20.7667 21.7519 21.6443 22.8705 21.6443H25.8116C26.65 21.6443 27.0748 21.2318 26.8304 20.4181C26.2711 18.7066 22.4917 15.1861 22.3213 14.9507Z" fill="#394A58"/>
</g>
<defs>
<clipPath id="clip0">
<rect width="26.9" height="26.9" fill="white" transform="translate(0 0.348633)"/>
</clipPath>
</defs>
</svg>
