<svg width="33" height="34" viewBox="0 0 33 34" fill="none" xmlns="http://www.w3.org/2000/svg">
<g clip-path="url(#clip0)">
<path d="M22.232 20.005L17.6609 16.5348V9.46595C17.6609 8.75519 17.0933 8.18066 16.3912 8.18066C15.689 8.18066 15.1214 8.75519 15.1214 9.46595V17.1775C15.1214 17.5824 15.3093 17.9641 15.6293 18.2058L20.7082 22.0616C20.9367 22.2351 21.2034 22.3186 21.4688 22.3186C21.856 22.3186 22.237 22.1425 22.4859 21.8032C22.9075 21.2363 22.7932 20.4305 22.232 20.005Z" fill="#394A58"/>
<path d="M16.3922 0.481934C7.35298 0.481934 0 7.92486 0 17.0746C0 26.2244 7.35298 33.6673 16.3922 33.6673C25.4314 33.6673 32.7844 26.2244 32.7844 17.0746C32.7844 7.92486 25.4314 0.481934 16.3922 0.481934ZM16.3922 31.0968C8.75477 31.0968 2.53944 24.8055 2.53944 17.0746C2.53944 9.3438 8.75477 3.05244 16.3922 3.05244C24.0309 3.05244 30.2449 9.3438 30.2449 17.0746C30.2449 24.8055 24.0296 31.0968 16.3922 31.0968Z" fill="#394A58"/>
</g>
<defs>
<clipPath id="clip0">
<rect width="32.7844" height="33.1854" fill="white" transform="translate(0 0.481934)"/>
</clipPath>
</defs>
</svg>
