<svg width="299" height="43" viewBox="0 0 299 43" fill="none" xmlns="http://www.w3.org/2000/svg">
<g clip-path="url(#clip0)">
<path d="M80.8874 35.4797C59.3395 35.4797 37.8487 35.4797 16.3578 35.4797C15.9017 33.5466 16.0727 33.3191 17.8969 33.3191C34.3713 33.3191 50.8458 33.3191 67.3772 33.3191C68.4603 33.3191 69.1444 33.1486 68.6313 31.784C68.2323 31.784 67.8333 31.7271 67.4342 31.7271C54.8931 31.7271 42.409 31.7271 29.868 31.7271C28.0438 31.7271 27.9298 31.6134 28.3858 29.5096C38.4187 29.5096 48.5656 29.5096 58.5985 29.5096C58.8835 27.747 58.8835 27.6902 57.2874 27.6902C51.9859 27.6902 46.6844 27.6902 41.326 27.6902C40.5849 27.6902 39.9008 27.6902 39.9008 26.6099C39.9008 25.8139 40.1289 25.4727 40.9839 25.4727C42.409 25.4727 43.8342 25.4159 45.2593 25.4727C46.2854 25.5296 46.8554 25.1316 47.4255 24.3356C50.4468 20.1849 53.753 16.3186 57.9714 13.3051C61.0497 11.1445 64.299 9.83678 68.1753 9.83678C89.8372 9.89364 197.919 9.89364 222.488 9.89364C223.058 9.89364 223.571 9.89364 224.141 9.77993C222.602 9.60935 221.063 9.38192 219.524 9.2682C212.284 8.75648 205.101 8.24476 197.862 7.7899C191.135 7.33503 184.409 6.99389 177.682 6.53902C169.53 5.97044 161.435 5.34501 153.284 4.83328C147.925 4.49214 130.596 3.35498 130.197 3.29812C123.983 2.90011 117.77 2.55896 111.556 2.1041C103.062 1.53552 94.5116 0.966941 86.0179 0.341504C83.0536 0.114072 49.0786 -2.21711 32.1482 9.72307C35.1124 9.72307 37.7916 9.72307 40.4709 9.72307C41.0409 9.72307 41.554 9.66621 42.124 9.77993C43.2641 9.9505 43.7202 10.9171 42.9221 11.77C40.8129 13.9306 38.9888 16.3186 36.1955 17.7969C34.3713 18.7635 32.4902 19.3321 30.438 19.3321C26.6757 19.3321 22.9133 19.2752 19.151 19.3889C18.4099 19.3889 17.5549 19.7869 16.9848 20.2987C11.6834 25.0747 6.4389 29.9076 1.13743 34.6837C-0.173684 35.8209 -0.230689 36.9012 0.111341 38.2089C0.510376 39.7441 2.04951 40.8244 3.58865 40.8244C9.57417 40.8244 15.5597 40.8244 21.5452 40.8244C23.0273 40.8244 24.4525 40.8244 25.9346 40.8244C28.8419 40.8244 31.4071 39.6872 33.9723 38.3226C34.7704 37.9246 35.7395 37.5835 36.6515 37.5835C50.9028 37.5266 65.097 37.5835 79.3483 37.5835C81.2295 37.5835 81.2295 37.5266 80.8874 35.4797Z" fill="#E21C1C"/>
<path d="M89.9238 19.1891H92.1778C93.8951 19.1891 95.6124 19.1891 95.6124 21.9725C95.6124 24.756 93.9488 24.756 92.1778 24.756H91.5338V26.8971H89.9775V19.1891H89.9238ZM91.5338 23.4178H92.8218C93.8951 23.4178 93.8951 23.4178 93.8951 22.0261C93.8951 20.5808 93.8951 20.5808 92.8218 20.5808H91.5338V23.4178Z" fill="#394A58"/>
<path d="M98.5641 25.559H101.784V26.9507H97.0078V19.1892H101.784V20.5809H98.5641V22.4009H101.14V23.7391H98.5641V25.559Z" fill="#394A58"/>
<path d="M104.896 26.8972H103.34V19.1892H107.74V20.5809H104.896V26.8972Z" fill="#394A58"/>
<path d="M110.855 24.8096C110.855 23.6855 111.392 22.5615 113.109 19.1892H115.094V26.8972H113.592V21.2768H113.216C113.216 22.4009 112.68 23.5249 110.962 26.8972H108.977V19.1892H110.479V24.8096H110.855Z" fill="#394A58"/>
<path d="M120.139 18.975C123.198 18.975 123.198 21.4372 123.198 22.7219V23.3642C123.198 24.5954 123.198 27.1112 120.139 27.1112H119.817C116.758 27.1112 116.758 24.6489 116.758 23.3642V22.7219C116.758 21.4908 116.758 18.975 119.817 18.975H120.139ZM118.421 22.936V23.1501C118.421 25.6124 118.421 25.6124 119.924 25.6124C121.427 25.6124 121.427 25.6124 121.427 23.1501V22.936C121.427 20.4737 121.427 20.4738 119.924 20.4738C118.421 20.4738 118.421 20.5273 118.421 22.936Z" fill="#394A58"/>
<path d="M126.363 22.3473H128.993V19.1892H130.549V26.8972H128.993V23.7391H126.363V26.8972H124.807V19.1892H126.363V22.3473Z" fill="#394A58"/>
<path d="M136.292 19.1892L138.707 26.3619V26.8972H137.204L136.614 25.0772H133.77L133.179 26.8972H131.73V26.3619L134.145 19.1892H136.292ZM134.843 20.6345C134.843 21.7585 134.575 22.615 134.145 23.7926H136.131C135.755 22.615 135.433 21.7585 135.433 20.6345H134.843Z" fill="#394A58"/>
<path d="M145.682 19.1892V26.8972H144.126V20.5809H142.247C142.247 21.5444 142.194 22.722 141.925 24.8631C141.711 26.7366 141.442 26.9507 139.027 26.9507V25.7731C140.101 25.7731 140.315 25.6661 140.476 24.649C140.798 22.4544 140.798 21.2768 140.852 19.2427H145.682V19.1892Z" fill="#394A58"/>
<path d="M147.615 19.1892H149.172V21.598H149.869C151.533 21.598 153.197 21.598 153.197 24.2743C153.197 26.9507 151.533 26.9507 149.869 26.9507H147.615V19.1892ZM149.172 25.559H150.46C151.533 25.559 151.533 25.559 151.533 24.2743C151.533 22.9897 151.533 22.9897 150.46 22.9897H149.172V25.559Z" fill="#394A58"/>
<path d="M156.201 22.3473H158.83V19.1892H160.387V26.8972H158.83V23.7391H156.201V26.8972H154.645V19.1892H156.201V22.3473Z" fill="#394A58"/>
<path d="M166.13 19.1892L168.545 26.3619V26.8972H167.042L166.452 25.0772H163.608L163.017 26.8972H161.568V26.3619L163.983 19.1892H166.13ZM164.681 20.6345C164.681 21.7585 164.413 22.615 163.983 23.7926H165.969C165.593 22.615 165.271 21.7585 165.271 20.6345H164.681Z" fill="#394A58"/>
<path d="M170.853 24.2743C169.887 23.5249 169.458 23.2038 169.458 21.705C169.458 19.1892 171.175 19.1892 172.731 19.1892H175.093V26.8972H173.536V24.4884H172.088C172.088 25.4519 171.658 25.9872 171.014 26.8972H169.297V26.3619L170.853 24.2743ZM173.483 20.5809H171.927C171.122 20.5809 171.122 20.5809 171.122 21.8656C171.122 23.1503 171.122 23.1503 171.927 23.1503H173.483V20.5809Z" fill="#394A58"/>
<path d="M182.177 24.8096C182.177 23.6855 182.714 22.5615 184.431 19.1892H186.417V26.8972H184.914V21.2768H184.538C184.538 22.4009 184.002 23.5249 182.284 26.8972H180.299V19.1892H181.801V24.8096H182.177Z" fill="#394A58"/>
<path d="M189.959 22.3473H192.588V19.1892H194.145V26.8972H192.588V23.7391H189.959V26.8972H188.402V19.1892H189.959V22.3473Z" fill="#394A58"/>
<path d="M197.687 22.3473H200.317V19.1892H201.873V26.8972H200.317V23.7391H197.687V26.8972H196.131V19.1892H197.687V22.3473Z" fill="#394A58"/>
<path d="M206.863 18.975C209.922 18.975 209.922 21.4372 209.922 22.7219V23.3642C209.922 24.5954 209.922 27.1112 206.863 27.1112H206.541C203.482 27.1112 203.482 24.6489 203.482 23.3642V22.7219C203.482 21.4908 203.482 18.975 206.541 18.975H206.863ZM205.2 22.936V23.1501C205.2 25.6124 205.2 25.6124 206.702 25.6124C208.205 25.6124 208.205 25.6124 208.205 23.1501V22.936C208.205 20.4737 208.205 20.4738 206.702 20.4738C205.2 20.5273 205.2 20.5273 205.2 22.936Z" fill="#394A58"/>
<path d="M213.625 19.1892C215.289 19.1892 217.006 19.1892 217.006 21.2233C217.006 21.9191 216.738 22.615 215.986 22.8826V23.0967C217.113 23.3644 217.113 24.4884 217.113 24.7561C217.113 26.7901 215.45 26.7901 213.732 26.7901H211.479V19.1892H213.625ZM214.376 22.3473C215.235 22.3473 215.235 22.2938 215.235 21.4374C215.235 20.5274 215.181 20.5274 214.376 20.5274H213.088V22.3473H214.376ZM213.088 23.7391V25.559H214.537C215.396 25.559 215.396 25.5055 215.396 24.649C215.396 23.7391 215.342 23.7391 214.537 23.7391H213.088Z" fill="#394A58"/>
<path d="M222.587 19.1892L225.002 26.3619V26.8972H223.499L222.909 25.0772H220.065L219.474 26.8972H217.918V26.3619L220.333 19.1892H222.587ZM221.138 20.6345C221.138 21.7585 220.87 22.615 220.44 23.7926H222.426C222.05 22.615 221.728 21.7585 221.728 20.6345H221.138Z" fill="#394A58"/>
<path d="M226.075 19.1892H227.631V25.5055H230.261V19.1892H231.817V25.5055H232.837V28.5565H231.442V26.8972H226.021V19.1892H226.075Z" fill="#394A58"/>
<path d="M236.003 24.8096C236.003 23.6855 236.54 22.5615 238.257 19.1892H240.243V26.8972H238.74V21.2768H238.365C238.365 22.4009 237.828 23.5249 236.111 26.8972H234.125V19.1892H235.628V24.8096H236.003Z" fill="#394A58"/>
<path d="M245.233 18.975C248.291 18.975 248.291 21.4372 248.291 22.7219V23.3642C248.291 24.5954 248.291 27.1112 245.233 27.1112H244.911C241.852 27.1112 241.852 24.6489 241.852 23.3642V22.7219C241.852 21.4908 241.852 18.975 244.911 18.975H245.233ZM243.569 22.936V23.1501C243.569 25.6124 243.569 25.6124 245.072 25.6124C246.574 25.6124 246.574 25.6124 246.574 23.1501V22.936C246.574 20.4737 246.574 20.4738 245.072 20.4738C243.569 20.5273 243.569 20.5273 243.569 22.936Z" fill="#394A58"/>
<path d="M251.461 22.3473H254.09V19.1892H255.647V26.8972H254.09V23.7391H251.461V26.8972H249.904V19.1892H251.461V22.3473Z" fill="#394A58"/>
<path d="M259.187 22.3473H261.817V19.1892H263.373V26.8972H261.817V23.7391H259.187V26.8972H257.631V19.1892H259.187V22.3473Z" fill="#394A58"/>
<path d="M269.116 19.1892L271.531 26.3619V26.8972H270.029L269.438 25.0772H266.594L266.004 26.8972H264.555V26.3619L266.97 19.1892H269.116ZM267.667 20.6345C267.667 21.7585 267.399 22.615 266.97 23.7926H268.955C268.58 22.615 268.258 21.7585 268.258 20.6345H267.667Z" fill="#394A58"/>
<path d="M273.786 24.2743C272.82 23.5249 272.39 23.2038 272.39 21.705C272.39 19.1892 274.108 19.1892 275.664 19.1892H278.025V26.8972H276.415V24.4884H274.966C274.966 25.4519 274.537 25.9872 273.893 26.8972H272.176V26.3619L273.786 24.2743ZM276.415 20.5809H274.859C274.054 20.5809 274.054 20.5809 274.054 21.8656C274.054 23.1503 274.054 23.1503 274.859 23.1503H276.415V20.5809Z" fill="#394A58"/>
<path d="M89.9238 32.2499H95.6661V39.9579H94.1098V33.6416H91.4801V39.9579H89.9238V32.2499Z" fill="#394A58"/>
<path d="M103.555 32.2499V39.9579H101.999V33.6416H100.12C100.12 34.6051 100.067 35.7827 99.7984 37.9238C99.5837 39.7973 99.3154 40.0114 96.9004 40.0114V38.8338C97.9737 38.8338 98.1884 38.7267 98.3494 37.7097C98.6714 35.5151 98.6714 34.3375 98.725 32.3034H103.555V32.2499Z" fill="#394A58"/>
<path d="M108.547 32.0891C111.606 32.0891 111.606 34.5514 111.606 35.836V36.4784C111.606 37.7095 111.606 40.2253 108.547 40.2253H108.225C105.166 40.2253 105.166 37.763 105.166 36.4784V35.836C105.166 34.6049 105.166 32.0891 108.225 32.0891H108.547ZM106.883 36.0502V36.2643C106.883 38.7265 106.883 38.7265 108.386 38.7265C109.889 38.7265 109.889 38.7265 109.889 36.2643V36.0502C109.889 33.5879 109.889 33.5879 108.386 33.5879C106.883 33.5879 106.883 33.5879 106.883 36.0502Z" fill="#394A58"/>
<path d="M123.196 38.6197V41.6707H121.8V40.0114H113.16V32.2499H114.716V38.5661H116.863V32.2499H118.419V38.5661H120.566V32.2499H122.122V38.5661H123.196V38.6197Z" fill="#394A58"/>
<path d="M128.19 32.2499L130.604 39.4226V39.9579H129.102L128.511 38.1379H125.614L125.023 39.9579H123.574V39.4226L125.989 32.2499H128.19ZM126.741 33.6951C126.741 34.8192 126.472 35.6756 126.043 36.8533H128.029C127.653 35.6756 127.331 34.8192 127.331 33.6951H126.741Z" fill="#394A58"/>
<path d="M132.214 39.9579V41.6172H130.818V38.5661H131.623C132.536 36.5321 132.643 34.7657 132.643 33.1063V32.2499H137.473V38.5661H138.493V41.6172H137.097V39.9579H132.214ZM134.092 33.6416C134.092 34.8727 133.985 36.7997 133.18 38.6197H135.97V33.6416H134.092Z" fill="#394A58"/>
<path d="M143.163 36.1039L145.685 39.4226V39.9579H143.968C142.841 38.4591 142.143 37.5491 142.143 36.7997H141.285V39.9579H139.729V32.2499H141.285V35.408H142.143C142.143 34.6586 142.787 33.7487 143.968 32.2499H145.685V32.7852L143.163 36.1039Z" fill="#394A58"/>
<path d="M150.675 32.2499L153.09 39.4226V39.9579H151.587L150.997 38.1379H148.153L147.562 39.9579H146.113V39.4226L148.528 32.2499H150.675ZM149.226 33.6951C149.226 34.8192 148.958 35.6756 148.528 36.8533H150.514C150.138 35.6756 149.816 34.8192 149.816 33.6951H149.226Z" fill="#394A58"/>
<path d="M157.971 39.9579V41.6172H156.576V38.5661H157.381C158.293 36.5321 158.401 34.7657 158.401 33.1063V32.2499H163.231V38.5661H164.25V41.6172H162.855V39.9579H157.971ZM159.85 33.6416C159.85 34.8727 159.742 36.7997 158.937 38.6197H161.728V33.6416H159.85Z" fill="#394A58"/>
<path d="M167.578 32.2499C169.242 32.2499 170.959 32.2499 170.959 34.2839C170.959 34.9798 170.691 35.6756 169.94 35.9433V36.1574C171.067 36.425 171.067 37.5491 171.067 37.8168C171.067 39.8508 169.403 39.8508 167.686 39.8508H165.432V32.2499H167.578ZM168.33 35.4615C169.188 35.4615 169.188 35.408 169.188 34.5516C169.188 33.6416 169.135 33.6416 168.33 33.6416H167.042V35.4615H168.33ZM167.042 36.7997V38.6197H168.491C169.349 38.6197 169.349 38.5661 169.349 37.7097C169.349 36.7997 169.296 36.7997 168.491 36.7997H167.042Z" fill="#394A58"/>
<path d="M179.225 36.1039L181.694 39.4226V39.9579H179.977C178.903 38.5126 178.259 37.6562 178.259 36.7997H177.562V39.9579H176.005V36.7997H175.308C175.308 37.6562 174.664 38.5126 173.59 39.9579H171.873V39.4226L174.342 36.1039L171.873 32.7852V32.2499H173.59C174.664 33.6416 175.308 34.498 175.308 35.408H176.005V32.2499H177.562V35.408H178.259C178.259 34.5516 178.903 33.6951 179.977 32.2499H181.694V32.7852L179.225 36.1039Z" fill="#394A58"/>
<path d="M183.466 39.9579V41.6172H182.07V38.5661H182.875C183.788 36.5321 183.895 34.7657 183.895 33.1063V32.2499H188.725V38.5661H189.745V41.6172H188.403V39.9579H183.466ZM185.344 33.6416C185.344 34.8727 185.237 36.7997 184.432 38.6197H187.222V33.6416H185.344Z" fill="#394A58"/>
</g>
<defs>
<clipPath id="clip0">
<rect width="298.649" height="42.0749" fill="white"/>
</clipPath>
</defs>
</svg>
