<svg width="126" height="126" viewBox="0 0 126 126" fill="none" xmlns="http://www.w3.org/2000/svg">
<g clip-path="url(#clip0)">
<path d="M76.3417 46.4399C74.9925 46.4399 73.8975 47.5349 73.8975 48.8841C73.8975 50.2333 74.9925 51.3283 76.3417 51.3283C77.6909 51.3283 78.7859 50.2333 78.7859 48.8841C78.7859 47.5349 77.6909 46.4399 76.3417 46.4399Z" fill="#394A58"/>
<path d="M122.85 108.454L90.2247 75.8285C95.5396 67.8228 98.3391 58.5519 98.3391 48.8839C98.3391 21.9293 76.4098 0 49.4552 0C22.5006 0 0.571289 21.9293 0.571289 48.8839C0.571289 75.8385 22.5006 97.7679 49.4552 97.7679C59.1235 97.7679 68.3943 94.968 76.3998 89.6536L85.4177 98.6715C85.4189 98.6727 85.4201 98.6739 85.4216 98.6754L109.025 122.279C110.872 124.126 113.327 125.143 115.937 125.143C118.548 125.143 121.003 124.126 122.849 122.279C124.697 120.433 125.714 117.978 125.714 115.366C125.714 112.754 124.697 110.299 122.85 108.454ZM75.2503 84.5025C75.2503 84.5027 75.25 84.5027 75.2498 84.503C67.7053 89.9828 58.7859 92.8795 49.4552 92.8795C25.1961 92.8795 5.45968 73.1431 5.45968 48.8839C5.45968 24.6248 25.1961 4.88839 49.4552 4.88839C73.7144 4.88839 93.4508 24.6248 93.4508 48.8839C93.4508 58.2146 90.5541 67.134 85.074 74.6788C82.3324 78.4558 79.0273 81.7611 75.2503 84.5025ZM80.3782 86.7184C82.908 84.6489 85.2204 82.3364 87.2897 79.8069L94.2241 86.7414C92.1152 89.2303 89.8016 91.5442 87.3126 93.6528L80.3782 86.7184ZM119.393 118.822C118.469 119.746 117.242 120.254 115.937 120.254C114.633 120.254 113.405 119.746 112.482 118.822L90.7783 97.1187C93.2535 94.9944 95.5657 92.6825 97.6897 90.2072L119.394 111.911C120.317 112.834 120.826 114.06 120.826 115.366C120.826 116.672 120.317 117.899 119.393 118.822Z" fill="#394A58"/>
<path d="M49.4558 9.77686C27.8919 9.77686 10.3486 27.3201 10.3486 48.884C10.3486 70.4479 27.8919 87.9911 49.4558 87.9911C71.0197 87.9911 88.5629 70.4479 88.5629 48.884C88.5629 27.3201 71.0197 9.77686 49.4558 9.77686ZM49.4558 83.1028C30.5876 83.1028 15.237 67.7522 15.237 48.884C15.237 30.0158 30.5876 14.6652 49.4558 14.6652C68.324 14.6652 83.6745 30.0158 83.6745 48.884C83.6745 67.7522 68.324 83.1028 49.4558 83.1028Z" fill="#394A58"/>
<path d="M76.8458 38.3919C74.7411 32.9139 71.0766 28.2304 66.2478 24.8478C61.3042 21.3844 55.4972 19.5537 49.4549 19.5537C48.1053 19.5537 47.0107 20.6482 47.0107 21.9979C47.0107 23.3476 48.1053 24.4421 49.4549 24.4421C59.5003 24.4421 68.6739 30.7525 72.2828 40.1453C72.6562 41.1171 73.5823 41.7135 74.5649 41.7135C74.8563 41.7135 75.1527 41.661 75.4409 41.5503C76.7009 41.0661 77.33 39.6521 76.8458 38.3919Z" fill="#394A58"/>
</g>
<defs>
<clipPath id="clip0">
<rect width="125.143" height="125.143" fill="white" transform="translate(0.571289)"/>
</clipPath>
</defs>
</svg>
