<svg width="115" height="115" viewBox="0 0 115 115" fill="none" xmlns="http://www.w3.org/2000/svg">
<g clip-path="url(#clip0)">
<path d="M40.9911 70.5485L44.4122 73.9697C45.5968 75.1538 47.5131 75.1538 48.6977 73.9697L50.8387 71.8285C51.1822 71.9858 51.5342 72.1315 51.8897 72.2639V75.2918C51.8897 76.9628 53.2491 78.3221 54.9201 78.3221H59.758C61.429 78.3221 62.7883 76.9628 62.7883 75.2918V72.2639C63.1439 72.1315 63.4959 71.9858 63.8394 71.8285L65.9806 73.9699C67.1616 75.1503 69.0843 75.1509 70.2658 73.9697L73.687 70.5485C74.8682 69.3673 74.8682 67.4448 73.6867 66.2629L71.5458 64.1221C71.703 63.7786 71.8488 63.4266 71.9812 63.0711H75.0091C76.68 63.0711 78.0394 61.7117 78.0394 60.0407V55.2028C78.0394 53.5318 76.68 52.1724 75.0091 52.1724H71.9812C71.849 51.8171 71.703 51.4651 71.5458 51.1214L73.6872 48.9802C74.8682 47.7987 74.8682 45.8762 73.687 44.695L70.2656 41.2738C69.0843 40.0923 67.1619 40.0928 65.9802 41.2738L63.8394 43.415C63.4959 43.2578 63.1439 43.112 62.7883 42.9796V39.9517C62.7883 38.2807 61.429 36.9214 59.758 36.9214H54.9201C53.2491 36.9214 51.8897 38.2807 51.8897 39.9517V42.9796C51.5338 43.1123 51.1815 43.258 50.8387 43.415L48.6977 41.274C47.5138 40.0897 45.5964 40.0895 44.4122 41.274L40.9911 44.695C39.8098 45.8762 39.8098 47.7987 40.9913 48.9806L43.1323 51.1214C42.975 51.4649 42.8293 51.8169 42.6969 52.1724H39.669C37.998 52.1724 36.6387 53.5318 36.6387 55.2028V60.0407C36.6387 61.7117 37.998 63.0711 39.669 63.0711H42.6969C42.8293 63.4268 42.9753 63.7788 43.1323 64.1221L40.9909 66.2633C39.8098 67.4448 39.8098 69.3673 40.9911 70.5485ZM42.9058 59.744H39.9655V55.4989H42.9058C44.1838 55.4989 45.3294 54.6927 45.7565 53.4934C45.8947 53.1053 46.0537 52.7214 46.2296 52.3512C46.7761 51.2001 46.5361 49.8197 45.6328 48.9163L43.5537 46.8372L46.5552 43.8357L48.6343 45.915C49.5376 46.8182 50.9181 47.0586 52.07 46.5112C52.4387 46.3362 52.8228 46.177 53.2112 46.0386C54.4108 45.6114 55.217 44.4659 55.217 43.1881V40.2478H59.4621V43.1881C59.4621 44.4659 60.2684 45.6114 61.4676 46.0386C61.8557 46.1767 62.2396 46.3358 62.6098 46.5117C63.7609 47.0584 65.1409 46.8179 66.0447 45.9148L68.1238 43.8357L71.1253 46.8372L69.046 48.9163C68.1426 49.8199 67.9029 51.2003 68.4494 52.3512C68.6252 52.7214 68.7843 53.1055 68.9224 53.493C69.3496 54.6927 70.4952 55.4989 71.7731 55.4989H74.7134V59.744H71.7729C70.4952 59.744 69.3496 60.5502 68.9227 61.7494C68.7843 62.1375 68.6252 62.5215 68.4494 62.8916C67.9031 64.0423 68.1428 65.4227 69.0462 66.3265L71.1253 68.4056L68.1238 71.4071L66.0442 69.3276C65.1411 68.4247 63.7611 68.1849 62.6091 68.7314C62.2396 68.9071 61.8557 69.0661 61.468 69.204C60.2681 69.6312 59.4619 70.7768 59.4619 72.0547V74.9952H55.2168V72.0547C55.2168 70.777 54.4106 69.6314 53.2114 69.2045C52.8232 69.0661 52.4393 68.9071 52.0692 68.7312C50.9178 68.1845 49.5376 68.4249 48.6343 69.3278L46.5552 71.4071L43.5537 68.4056L45.6332 66.3261C46.5361 65.4227 46.7759 64.0423 46.2294 62.891C46.0537 62.5215 45.8947 62.1375 45.7565 61.7496C45.3294 60.5502 44.1838 59.744 42.9058 59.744Z" fill="#394A58"/>
<path d="M57.3402 66.4996C62.2356 66.4996 66.2183 62.5169 66.2183 57.6213C66.2183 52.7259 62.2356 48.7432 57.3402 48.7432C52.4448 48.7432 48.4619 52.7259 48.4619 57.6213C48.4619 62.5169 52.4448 66.4996 57.3402 66.4996ZM57.3402 52.07C60.4012 52.07 62.8914 54.5605 62.8914 57.6213C62.8914 60.6824 60.401 63.1727 57.3402 63.1727C54.2791 63.1727 51.7888 60.6822 51.7888 57.6213C51.7888 54.5603 54.2791 52.07 57.3402 52.07Z" fill="#394A58"/>
<path d="M21.4593 42.6365C33.0124 42.6365 42.3562 33.2479 42.3562 21.7398C42.3562 10.217 32.9818 0.842773 21.4593 0.842773C9.93674 0.842773 0.5625 10.217 0.5625 21.7395C0.5625 33.253 9.93009 42.6365 21.4593 42.6365ZM32.5939 35.3201C29.4451 37.9064 25.5251 39.3096 21.4593 39.3096C17.4812 39.3096 13.5391 37.9603 10.3249 35.3203C10.3249 31.8761 13.0403 29.4841 16.06 29.4841H26.8586C29.8813 29.4838 32.5939 31.8785 32.5939 35.3201ZM21.4593 4.16965C31.1476 4.16965 39.0294 12.0515 39.0294 21.7395C39.0294 25.7229 37.6948 29.3991 35.4525 32.3494C34.2491 28.7552 30.8528 26.157 26.8586 26.157H16.06C12.0662 26.157 8.66965 28.7552 7.46621 32.3494C5.22389 29.3991 3.88937 25.7229 3.88937 21.7395C3.88937 12.0515 11.7712 4.16965 21.4593 4.16965Z" fill="#394A58"/>
<path d="M93.2222 72.6064C81.6997 72.6064 72.3252 81.9809 72.3252 93.5034C72.3252 105.021 81.6828 114.4 93.2222 114.4C104.703 114.4 114.119 105.068 114.119 93.5034C114.119 81.9809 104.745 72.6064 93.2222 72.6064ZM104.357 107.084C97.9046 112.383 88.5905 112.425 82.0876 107.084C82.0876 103.64 84.803 101.248 87.8227 101.248H98.6212C101.644 101.248 104.357 103.642 104.357 107.084ZM107.215 104.113C106.012 100.519 102.615 97.9208 98.6215 97.9208H87.8229C83.8291 97.9208 80.4328 100.519 79.2293 104.113C76.9868 101.163 75.6523 97.4868 75.6523 93.5034C75.6523 83.8151 83.5341 75.9333 93.2224 75.9333C102.91 75.9333 110.792 83.8151 110.792 93.5034C110.792 97.4868 109.458 101.163 107.215 104.113Z" fill="#394A58"/>
<path d="M27.2089 21.0214C30.3874 17.8431 30.3877 12.6989 27.2089 9.52059H27.2092C24.0311 6.34254 18.8867 6.34165 15.7084 9.52059C12.5297 12.6986 12.5295 17.8427 15.708 21.0214C18.886 24.1994 24.0305 24.2001 27.2089 21.0214ZM18.0605 11.8727C19.9342 9.99899 22.9827 9.99899 24.8564 11.8727H24.8566C26.7345 13.7508 26.7348 16.7905 24.8564 18.6688C22.9829 20.5423 19.9344 20.5423 18.0603 18.6688C16.1824 16.7907 16.1821 13.751 18.0605 11.8727Z" fill="#394A58"/>
<path d="M15.7073 92.7849C18.8774 95.955 24.0372 95.9554 27.2081 92.7849C30.3789 89.6139 30.3789 84.4544 27.2081 81.2836H27.2079C24.0374 78.1131 18.8779 78.1131 15.7071 81.2836C12.5364 84.4544 12.5364 89.6139 15.7073 92.7849ZM18.0594 83.6362C19.9336 81.7625 22.9819 81.7625 24.8556 83.6362C26.7293 85.5097 26.7293 88.5586 24.8558 90.4323C22.9823 92.3063 19.9334 92.3063 18.0597 90.4323C16.186 88.5586 16.186 85.5097 18.0594 83.6362Z" fill="#394A58"/>
<path d="M87.4716 9.5203C84.3011 12.691 84.3011 17.8503 87.4716 21.0211C90.6457 24.1951 95.8055 24.1887 98.9726 21.0211C102.151 17.8428 102.151 12.6986 98.9726 9.5203H98.9729C95.8019 6.34913 90.6424 6.34957 87.4716 9.5203ZM96.6203 18.6688C94.7468 20.5425 91.6983 20.5427 89.8242 18.6688C87.9505 16.7951 87.9505 13.7463 89.8242 11.8726C91.6976 9.99893 94.7468 9.99893 96.6203 11.8726H96.6205C98.4984 13.751 98.4987 16.7906 96.6203 18.6688Z" fill="#394A58"/>
<path d="M98.9726 81.2837C95.8021 78.1132 90.6423 78.113 87.4716 81.2839C84.3011 84.4547 84.3011 89.6142 87.4718 92.7849C90.6426 95.9557 95.8019 95.9554 98.9728 92.7849C102.144 89.614 102.144 84.4544 98.9726 81.2837ZM96.6205 90.4324C94.747 92.3061 91.6983 92.3063 89.8241 90.4326C87.9507 88.5589 87.9507 85.5099 89.8239 83.6362C91.6978 81.7628 94.7464 81.7625 96.6203 83.6362C98.494 85.5097 98.494 88.5587 96.6205 90.4324Z" fill="#394A58"/>
<path d="M67.8065 23.403C68.7254 23.403 69.47 22.6583 69.47 21.7396C69.47 20.8209 68.7254 20.0762 67.8065 20.0762H46.8734C45.9545 20.0762 45.21 20.8209 45.21 21.7396C45.21 22.6583 45.9545 23.403 46.8734 23.403H67.8065Z" fill="#394A58"/>
<path d="M46.8744 91.8398C45.9555 91.8398 45.2109 92.5844 45.2109 93.5033C45.2109 94.4222 45.9555 95.1667 46.8744 95.1667H67.8075C68.7264 95.1667 69.4709 94.4222 69.4709 93.5033C69.4709 92.5844 68.7264 91.8398 67.8075 91.8398H46.8744Z" fill="#394A58"/>
<path d="M23.1218 68.0878V47.1546C23.1218 46.2358 22.3772 45.4912 21.4584 45.4912C20.5395 45.4912 19.7949 46.2358 19.7949 47.1546V68.0878C19.7949 69.0067 20.5395 69.7512 21.4584 69.7512C22.3772 69.7512 23.1218 69.0067 23.1218 68.0878Z" fill="#394A58"/>
<path d="M94.8855 68.0878V47.1546C94.8855 46.2358 94.1409 45.4912 93.222 45.4912C92.3031 45.4912 91.5586 46.2358 91.5586 47.1546V68.0878C91.5586 69.0067 92.3031 69.7512 93.222 69.7512C94.1409 69.7512 94.8855 69.0067 94.8855 68.0878Z" fill="#394A58"/>
<path d="M110.464 18.3492C110.64 19.2508 111.515 19.8394 112.416 19.6627C113.317 19.4866 113.906 18.6127 113.729 17.7111C111.819 7.937 103.195 0.842773 93.2222 0.842773C81.6997 0.842773 72.3252 10.217 72.3252 21.7395C72.3252 33.3177 81.7378 42.6363 93.2222 42.6363C103.09 42.6363 111.601 35.7033 113.653 26.1416C113.845 25.2434 113.273 24.3589 112.375 24.1664C111.478 23.9743 110.592 24.5456 110.4 25.4439C109.85 28.0078 108.737 30.3459 107.213 32.3432C106.008 28.7521 102.613 26.157 98.6215 26.157H87.8229C83.8291 26.157 80.4326 28.7552 79.2291 32.3494C76.9866 29.3991 75.6523 25.7229 75.6523 21.7395C75.6521 12.0515 83.5341 4.16965 93.2222 4.16965C101.607 4.16965 108.859 10.133 110.464 18.3492ZM87.8229 29.4838H98.6215C101.784 29.4838 104.357 32.0566 104.357 35.2191V35.3005C101.29 37.8154 97.3854 39.3096 93.2222 39.3096C89.3013 39.3096 85.3417 37.9931 82.0876 35.32C82.0876 31.8758 84.803 29.4838 87.8229 29.4838Z" fill="#394A58"/>
<path d="M21.4583 114.4C32.9903 114.4 42.3553 105.022 42.3553 93.5033C42.3553 83.6223 35.3396 75.013 25.6737 73.0319C24.775 72.849 23.8944 73.4276 23.7099 74.3277C23.5254 75.2277 24.1056 76.1066 25.0056 76.2914C33.131 77.9564 39.0284 85.1952 39.0284 93.5033C39.0284 97.4865 37.6939 101.163 35.4513 104.113C34.2479 100.519 30.8516 97.9207 26.8576 97.9207H16.059C12.0652 97.9207 8.66867 100.519 7.46523 104.113C5.22292 101.163 3.8884 97.4867 3.8884 93.5033C3.8884 85.195 9.78561 77.9562 17.9109 76.2914C18.811 76.1069 19.391 75.2277 19.2067 74.3277C19.0223 73.4276 18.1434 72.8485 17.2429 73.0319C7.57701 75.013 0.561523 83.6223 0.561523 93.5033C0.561523 105.005 9.90095 114.4 21.4583 114.4ZM16.059 101.248H26.8576C29.8806 101.248 32.5929 103.642 32.5929 107.084C26.1521 112.374 16.8355 112.432 10.3239 107.084C10.3239 103.639 13.0393 101.248 16.059 101.248Z" fill="#394A58"/>
</g>
<defs>
<clipPath id="clip0">
<rect width="113.557" height="113.557" fill="white" transform="translate(0.5625 0.842773)"/>
</clipPath>
</defs>
</svg>
