<svg width="27" height="27" viewBox="0 0 27 27" fill="none" xmlns="http://www.w3.org/2000/svg">
<g clip-path="url(#clip0)">
<path d="M22.9029 3.90636C20.3759 1.3888 17.0142 0.00143662 13.4365 0C9.86667 0 6.49966 1.38613 3.95603 3.90308C1.40788 6.42434 0.00328369 9.77493 0 13.3254V13.3295V13.332C0.000410461 15.481 0.565 17.6488 1.63672 19.6276L0.0367363 26.9L7.39282 25.2268C9.25591 26.1657 11.3347 26.6607 13.4313 26.6615H13.4367C17.0058 26.6615 20.3728 25.2752 22.9169 22.758C25.4673 20.2347 26.8725 16.8884 26.8741 13.3357C26.8752 9.80798 25.465 6.45923 22.9029 3.90636ZM13.4365 24.562H13.4317C11.5492 24.5612 9.68381 24.0885 8.03766 23.1948L7.68979 23.006L2.79832 24.1185L3.8608 19.2898L3.65598 18.9366C2.63763 17.1805 2.09951 15.2419 2.09951 13.3297C2.10341 7.14059 7.18862 2.09951 13.436 2.09951C16.4542 2.10074 19.29 3.27076 21.4212 5.39367C23.5845 7.54941 24.7755 10.3697 24.7744 13.3351C24.772 19.5257 19.6857 24.562 13.4365 24.562Z" fill="#394A58"/>
<path d="M9.77961 7.45312H9.19059C8.98557 7.45312 8.65268 7.52988 8.37111 7.83629C8.08933 8.14291 7.29529 8.88399 7.29529 10.3912C7.29529 11.8984 8.39676 13.3547 8.55027 13.5594C8.70399 13.7638 10.6765 16.9555 13.8005 18.1834C16.3969 19.2038 16.9253 19.0008 17.4887 18.9497C18.0523 18.8988 19.3072 18.2089 19.5634 17.4936C19.8195 16.7784 19.8195 16.1652 19.7427 16.0371C19.6658 15.9095 19.4607 15.8329 19.1535 15.6798C18.8461 15.5265 17.3397 14.7729 17.0579 14.6705C16.7761 14.5685 16.5713 14.5174 16.3663 14.8242C16.1613 15.1304 15.5577 15.8389 15.3783 16.0433C15.1991 16.2479 15.0198 16.2735 14.7123 16.1202C14.4049 15.9665 13.4251 15.6373 12.251 14.5939C11.3371 13.7818 10.7029 12.7462 10.5236 12.4396C10.3444 12.1332 10.5045 11.9674 10.6586 11.8145C10.7967 11.6774 10.9833 11.4898 11.137 11.3111C11.2905 11.1321 11.3342 11.0044 11.4368 10.8C11.5393 10.5956 11.4879 10.4167 11.4112 10.2636C11.3342 10.1102 10.7444 8.59544 10.471 7.9896H10.4712C10.241 7.47939 9.99859 7.46216 9.77961 7.45312Z" fill="#394A58"/>
</g>
<defs>
<clipPath id="clip0">
<rect width="26.9" height="26.9" fill="white"/>
</clipPath>
</defs>
</svg>
